<svg fill="none" height="100%" width="100%" viewBox="0 0 400 400" xmlns:xlink="http://www.w3.org/1999/xlink" xmlns="http://www.w3.org/2000/svg"><g transform="matrix(1,0,0,1,200,264)" id="i0"><g id="i1"><path stroke-width="7" stroke="#d8b4fe" d="M134,-2C134,-2,12,-2,12,-2C10,1,6,2,0,2C-6,2,-10,1,-12,-2C-12,-2,-134,-2,-134,-2" /></g></g><g transform="matrix(1,0,0,1,200,209)" id="i2"><g id="i1"><path stroke-width="7" stroke="#d8b4fe" d="M0,-31C4.957,-38,15.697,-43,31.395,-43C48.745,-43,79.314,-31,110.709,-31C110.709,-31,129,43,129,43C92.418,43,56.798,31,36.582,31C18.291,31,5.776,36,0,43C-5.776,36,-18.291,31,-36.582,31C-56.798,31,-92.418,43,-129,43C-129,43,-110.709,-31,-110.709,-31C-79.314,-31,-48.745,-43,-31.395,-43C-15.697,-43,-4.957,-38,0,-31Z" /></g></g><g transform="matrix(1,0,0,1,264.109,208.537)" id="i3"><g id="i1" transform="matrix(1,0,0,1,0.639,0.62)"><path stroke-miterlimit="1" stroke-width="7" stroke="#d8b4fe" d="M-33.105,-43C-48.803,-43,-59.543,-38,-64.5,-31C-64.5,-31,-64.5,43,-64.5,43C-58.724,36,-46.209,31,-27.918,31C-7.702,31,27.918,43,64.5,43C64.5,43,46.209,-31,46.209,-31C14.814,-31,-15.755,-43,-33.105,-43Z"><animate repeatCount="indefinite" attributeName="d" dur="3s" begin="0s" calcMode="spline" values="M-33.105,-43C-48.803,-43,-59.543,-38,-64.5,-31C-64.5,-31,-64.5,43,-64.5,43C-58.724,36,-46.209,31,-27.918,31C-7.702,31,27.918,43,64.5,43C64.5,43,46.209,-31,46.209,-31C14.814,-31,-15.755,-43,-33.105,-43Z; M-33.105,-43C-48.803,-43,-59.543,-38,-64.5,-31C-64.5,-31,-64.5,43,-64.5,43C-58.724,36,-46.209,31,-27.918,31C-7.702,31,27.918,43,64.5,43C64.5,43,46.209,-31,46.209,-31C14.814,-31,-15.755,-43,-33.105,-43Z; M-32.91,-43.15C-48.607,-43.221,-59.37,-38.269,-64.359,-31.292C-64.359,-31.292,-64.694,42.707,-64.694,42.707C-58.886,35.733,-46.349,30.79,-28.058,30.873C-7.842,30.965,50.252,35.843,65.804,27.542C58.252,18.843,49.502,-16.907,46.349,-30.79C19.502,-32.407,-15.56,-43.071,-32.91,-43.15Z; M-33.41,-46.15C-49.071,-45.074,-59.37,-38.269,-64.359,-31.292C-64.359,-31.292,-64.694,42.707,-64.694,42.707C-58.886,35.733,-50.115,28.289,-32.058,25.373C-11.748,22.093,19.502,23.843,41.804,8.292C30.002,-14.657,27.252,-35.407,26.099,-45.04C8.502,-43.157,-18.749,-47.157,-33.41,-46.15Z; M-38.16,-56.15C-49.817,-46.516,-59.37,-38.269,-64.359,-31.292C-64.359,-31.292,-64.694,42.707,-64.694,42.707C-58.886,35.733,-50.541,27.2,-34.558,14.873C-23.498,6.343,-4.248,-7.907,18.054,-23.458C6.252,-46.407,-4.498,-76.157,-5.651,-85.79C-12.998,-76.407,-25.749,-66.407,-38.16,-56.15Z; M-55.66,-71.15C-56.521,-64.74,-59.748,-41.657,-64.359,-31.292C-64.359,-31.292,-64.694,42.707,-64.694,42.707C-58.886,35.733,-54.367,15.976,-49.558,-3.627C-45.748,-19.157,-44.248,-37.157,-43.446,-50.958C-45.248,-64.157,-49.998,-105.657,-51.151,-115.29C-52.748,-97.657,-54.249,-81.657,-55.66,-71.15Z; M-72.16,-69.65C-70.234,-63.475,-65.248,-42.657,-64.359,-31.292C-64.359,-31.292,-64.694,42.707,-64.694,42.707C-66.748,31.343,-69.549,11.791,-75.058,-7.627C-79.748,-24.157,-84.748,-39.157,-90.446,-52.458C-88.248,-67.657,-87.748,-96.657,-87.651,-119.29C-82.248,-99.157,-75.749,-81.157,-72.16,-69.65Z; M-79.66,-66.15C-72.696,-57.715,-65.248,-42.657,-64.359,-31.292C-64.359,-31.292,-64.694,42.707,-64.694,42.707C-66.748,31.343,-75.034,12.39,-89.058,-2.127C-98.748,-12.157,-121.748,-22.657,-138.946,-26.458C-133.748,-42.657,-124.248,-73.657,-120.151,-93.29C-104.748,-85.157,-88.749,-77.157,-79.66,-66.15Z; M-93.66,-52.65C-74.249,-48.157,-65.248,-42.657,-64.359,-31.292C-64.359,-31.292,-64.694,42.707,-64.694,42.707C-66.748,31.343,-86.248,20.843,-102.058,19.373C-115.944,18.082,-142.248,16.843,-160.946,12.542C-155.248,-8.157,-147.248,-42.157,-143.151,-61.79C-126.748,-56.157,-105.404,-55.368,-93.66,-52.65Z; M-95.66,-49.15C-82.249,-49.145,-65.248,-42.657,-64.359,-31.292C-64.359,-31.292,-64.694,42.707,-64.694,42.707C-66.748,31.343,-86.748,23.343,-102.558,21.873C-116.444,20.582,-161.248,32.343,-182.946,25.542C-177.248,8.843,-167.748,-22.657,-163.651,-42.29C-147.248,-36.657,-117.249,-49.157,-95.66,-49.15Z; M-96.66,-44.15C-83.249,-44.145,-70.748,-39.157,-64.359,-31.292C-64.359,-31.292,-64.694,42.707,-64.694,42.707C-73.248,35.843,-86.745,31.757,-99.558,31.373C-120.248,30.753,-163.248,42.922,-194.446,43.542C-188.748,26.843,-179.248,-13.157,-175.151,-32.79C-155.248,-33.41,-118.249,-44.157,-96.66,-44.15Z; M-96.66,-44.15C-83.249,-44.145,-70.748,-39.157,-64.359,-31.292C-64.359,-31.292,-64.694,42.707,-64.694,42.707C-73.248,35.843,-86.745,31.757,-99.558,31.373C-120.248,30.753,-163.248,42.922,-194.446,43.542C-188.748,26.843,-179.248,-13.157,-175.151,-32.79C-155.248,-33.41,-118.249,-44.157,-96.66,-44.15Z" keyTimes="0; 0.090909; 0.181818; 0.272727; 0.363636; 0.454545; 0.545455; 0.636364; 0.727273; 0.818182; 0.909091; 1" keySplines="0 0 1 1; 0 0 1 1; 0 0 1 1; 0 0 1 1; 0 0 1 1; 0 0 1 1; 0 0 1 1; 0 0 1 1; 0 0 1 1; 0 0 1 1; 0 0 1 1" fill="freeze" /><animate repeatCount="indefinite" attributeName="stroke-opacity" dur="3s" begin="0s" fill="freeze" values="1; 1; 0; 0" keyTimes="0; 0.909091; 0.945455; 1" keySplines="0 0 1 1; 0 0 1 1; 0 0 1 1" calcMode="spline" /></path></g></g><g transform="matrix(1,0,0,1,200,200)" id="i4"><g id="i1"><path stroke-width="7" stroke="#d8b4fe" fill="none" d="M0,49.5C0,49.5,0,-24.5,0,-24.5" /></g></g></svg>