<svg xmlns="http://www.w3.org/2000/svg" xmlns:xlink="http://www.w3.org/1999/xlink" version="1.1" x="0px" y="0px" viewBox="0 0 100 125" enable-background="new 0 0 100 100" xml:space="preserve"><g><g><path d="M8.721,58.517c-0.894-3.219-1.706-6.472-2.543-9.715c-0.395-1.643-0.693-3.303-0.921-4.973    c-0.209-1.683-0.423-3.319-0.361-5.093c0.014-0.124,0.015-0.225,0.069-0.412c0.052-0.309,0.462-0.447,0.52-0.465    c0.239-0.081,0.446-0.125,0.661-0.174c0.424-0.09,0.843-0.16,1.262-0.224c0.837-0.126,1.674-0.223,2.51-0.312    c1.673-0.175,3.347-0.3,5.021-0.395c3.349-0.191,6.701-0.27,10.052-0.283c3.346-0.013,6.693-0.007,10.045,0.072    c1.677,0.043,3.353,0.1,5.039,0.223c0.845,0.07,1.687,0.132,2.557,0.31c0.221,0.048,0.44,0.096,0.678,0.177    c0.121,0.043,0.245,0.088,0.393,0.17c0.074,0.043,0.157,0.094,0.254,0.189c0.147,0.169,0.073,0.079,0.17,0.227    c0.196,0.37,0.206,0.565,0.257,0.818c0.037,0.237,0.056,0.464,0.065,0.687c0.057,1.775-0.218,3.453-0.574,5.118    c-0.369,1.662-0.859,3.282-1.466,4.874c-0.598,1.553-1.224,3.124-1.931,4.656c-0.7,1.536-1.437,3.036-2.329,4.508l-0.001,0.001    l-0.07,0.115l-0.119,0.047c-0.613,0.242-1.192,0.393-1.79,0.559c-0.599,0.126-1.193,0.291-1.796,0.385    c-0.603,0.095-1.201,0.227-1.807,0.292l-1.814,0.22c-1.213,0.074-2.425,0.216-3.64,0.221l-1.821,0.042    c-0.607,0.025-1.222-0.007-1.82-0.01c-1.209-0.031-2.41-0.012-3.625-0.084c-1.212-0.078-2.43-0.09-3.638-0.225l-1.815-0.167    l-1.811-0.25c-0.604-0.084-1.204-0.221-1.806-0.329c-0.608-0.153-1.182-0.274-1.825-0.529l-0.173-0.069L8.721,58.517z     M9.477,58.074c0.45,0.159,0.981,0.299,1.48,0.422c0.586,0.104,1.164,0.237,1.756,0.319l1.776,0.245l1.791,0.165    c1.192,0.134,2.393,0.145,3.589,0.222c1.195,0.071,2.41,0.053,3.615,0.084c0.609,0.003,1.201,0.035,1.8,0.01l1.799-0.042    c1.201-0.004,2.392-0.145,3.587-0.218l1.78-0.216c0.595-0.064,1.177-0.193,1.767-0.286c0.59-0.091,1.162-0.252,1.744-0.373    c0.564-0.156,1.154-0.315,1.665-0.517l-0.189,0.161l0.001-0.001c0.822-1.399,1.545-2.915,2.207-4.43    c0.673-1.515,1.264-3.059,1.845-4.634c0.562-1.54,1.019-3.135,1.35-4.743c0.318-1.602,0.56-3.259,0.471-4.83    c-0.013-0.194-0.036-0.383-0.069-0.558c-0.022-0.157-0.106-0.376-0.106-0.376c0.052,0.054-0.09-0.118-0.013-0.025    c0.022,0.021,0.016,0.015,0,0.007c-0.036-0.019-0.108-0.047-0.184-0.072c-0.159-0.051-0.349-0.091-0.537-0.128    c-0.773-0.135-1.599-0.225-2.419-0.295c-1.647-0.136-3.313-0.209-4.977-0.268c-3.332-0.111-6.672-0.149-10.012-0.167    c-3.335-0.017-6.672,0.033-10,0.193c-1.664,0.08-3.326,0.189-4.98,0.348c-0.827,0.078-1.651,0.176-2.468,0.295    c-0.407,0.061-0.814,0.128-1.207,0.21c-0.192,0.042-0.395,0.088-0.551,0.141c-0.04,0.011-0.081,0.039-0.022-0.005    c-0.031,0.028,0.083-0.118,0.064-0.106c-0.007,0.014-0.023,0.123-0.029,0.206c-0.061,1.57,0.138,3.271,0.341,4.9    c0.22,1.643,0.508,3.279,0.889,4.888C7.833,51.758,8.616,54.92,9.477,58.074z"/></g><g><path d="M90.679,58.074c0.861-3.153,1.644-6.315,2.449-9.475c0.381-1.609,0.67-3.245,0.889-4.888    c0.202-1.629,0.402-3.33,0.341-4.9c-0.006-0.083-0.022-0.192-0.029-0.206c-0.019-0.012,0.095,0.134,0.064,0.106    c0.059,0.044,0.018,0.016-0.022,0.005c-0.156-0.053-0.359-0.099-0.551-0.141c-0.394-0.082-0.8-0.149-1.207-0.21    c-0.816-0.119-1.641-0.217-2.468-0.295c-1.654-0.158-3.316-0.267-4.98-0.348c-3.328-0.16-6.664-0.209-10-0.193    c-3.341,0.019-6.681,0.057-10.012,0.167c-1.665,0.058-3.33,0.132-4.977,0.268c-0.82,0.07-1.646,0.16-2.419,0.295    c-0.188,0.037-0.378,0.077-0.537,0.128c-0.076,0.025-0.149,0.053-0.184,0.072c-0.016,0.009-0.022,0.014,0-0.007    c0.077-0.093-0.065,0.079-0.013,0.025c0,0-0.084,0.219-0.106,0.376c-0.033,0.175-0.056,0.365-0.069,0.558    c-0.089,1.571,0.153,3.228,0.471,4.83c0.331,1.607,0.788,3.203,1.35,4.743c0.581,1.575,1.172,3.12,1.845,4.634    c0.663,1.515,1.385,3.031,2.207,4.43l0.001,0.001l-0.189-0.161c0.511,0.201,1.101,0.361,1.665,0.517    c0.582,0.122,1.154,0.282,1.744,0.373c0.589,0.093,1.172,0.222,1.767,0.286l1.78,0.216c1.195,0.073,2.386,0.213,3.587,0.218    l1.799,0.042c0.599,0.025,1.191-0.007,1.8-0.01c1.204-0.031,2.419-0.013,3.615-0.084c1.196-0.078,2.397-0.089,3.589-0.222    l1.791-0.165l1.776-0.245c0.592-0.082,1.17-0.215,1.756-0.319C89.698,58.373,90.229,58.233,90.679,58.074z M91.206,58.789    c-0.643,0.255-1.216,0.377-1.825,0.529c-0.602,0.108-1.203,0.245-1.806,0.329l-1.811,0.25l-1.815,0.167    c-1.208,0.135-2.425,0.147-3.638,0.225c-1.215,0.072-2.416,0.053-3.625,0.084c-0.598,0.003-1.213,0.035-1.82,0.01l-1.821-0.042    c-1.215-0.005-2.427-0.147-3.64-0.221l-1.814-0.22c-0.606-0.065-1.204-0.197-1.807-0.292c-0.603-0.094-1.197-0.259-1.796-0.385    c-0.599-0.167-1.177-0.318-1.79-0.559l-0.119-0.047l-0.07-0.115l-0.001-0.001c-0.893-1.472-1.63-2.971-2.329-4.508    c-0.706-1.532-1.333-3.103-1.931-4.656c-0.608-1.592-1.098-3.212-1.466-4.874c-0.355-1.666-0.631-3.343-0.574-5.118    c0.009-0.223,0.028-0.451,0.065-0.687c0.05-0.253,0.061-0.447,0.256-0.818c0.097-0.148,0.023-0.058,0.17-0.227    c0.097-0.095,0.179-0.145,0.254-0.189c0.148-0.082,0.271-0.128,0.393-0.17c0.239-0.08,0.458-0.128,0.678-0.177    c0.87-0.178,1.712-0.24,2.557-0.31c1.686-0.123,3.363-0.18,5.039-0.223c3.352-0.079,6.699-0.085,10.045-0.072    c3.351,0.013,6.702,0.092,10.052,0.283c1.675,0.096,3.349,0.22,5.021,0.395c0.836,0.089,1.673,0.186,2.51,0.312    c0.419,0.064,0.838,0.134,1.262,0.224c0.215,0.049,0.422,0.093,0.661,0.174c0.058,0.019,0.468,0.156,0.52,0.465    c0.055,0.187,0.056,0.287,0.069,0.412c0.062,1.773-0.152,3.41-0.361,5.093c-0.228,1.669-0.526,3.33-0.921,4.973    c-0.836,3.243-1.649,6.496-2.543,9.715l-0.057,0.204L91.206,58.789z"/></g><path d="M5.671,46.147c-0.74,0.066-1.716-0.328-1.768-0.915L3.4,39.558c-0.052-0.587,1.189-1.147,1.929-1.212L5.671,46.147z"/><path d="M94.488,46.147c0.74,0.066,1.716-0.328,1.768-0.915l0.503-5.673c0.052-0.587-1.193-1.147-1.932-1.212L94.488,46.147z"/><path d="M56.26,41.531c0,0-4.623-0.439-6.182-0.439s-6.182,0.439-6.182,0.439v-3.899c0,0,2.81,0.879,6.182,0.879   c3.513,0,6.182-0.879,6.182-0.879V41.531z"/><ellipse transform="matrix(0.9457 0.3251 -0.3251 0.9457 18.06 -11.3867)" fill="none" stroke="#000000" stroke-width="0.1405" stroke-miterlimit="10" cx="43.099" cy="48.342" rx="0.31" ry="3.433"/><ellipse transform="matrix(-0.9457 0.3251 -0.3251 -0.9457 126.7026 75.5102)" fill="none" stroke="#000000" stroke-width="0.1405" stroke-miterlimit="10" cx="57.042" cy="48.342" rx="0.31" ry="3.433"/></g><text x="0" y="115" fill="#000000" font-size="5px" font-weight="bold" font-family="'Helvetica Neue', Helvetica, Arial-Unicode, Arial, Sans-serif">Created by Geoffrey Couten</text><text x="0" y="120" fill="#000000" font-size="5px" font-weight="bold" font-family="'Helvetica Neue', Helvetica, Arial-Unicode, Arial, Sans-serif">from the Noun Project</text></svg>